<svg xmlns="http://www.w3.org/2000/svg" width="1647" height="211" fill="none"><path fill="#F8F4EB" d="M1032.79 45.852c-.39 2.4 2.43 3.956 4.25 2.34 10.45-9.349 30.17-12.968 38.89-13.426 8.69-.457 20.35-.446 20.44-.446 3.46 0 6.28 2.81 6.28 6.285v11.062a3.77 3.77 0 0 0 3.77 3.763h13.51c2.07 0 3.76-1.689 3.76-3.764V36.83a2.52 2.52 0 0 1 2.51-2.51h16.07a2.52 2.52 0 0 1 2.51 2.51l.02.012v16.08a2.514 2.514 0 0 1-2.51 2.51h-14.81a3.77 3.77 0 0 0-3.77 3.763V72.8a3.77 3.77 0 0 0 3.77 3.764h11.04a6.28 6.28 0 0 1 6.28 6.285v32.859a6.28 6.28 0 0 1-6.28 6.286h-11.04a3.77 3.77 0 0 0-3.77 3.763v11.135c0 3.462-2.81 6.285-6.28 6.285h-11a3.77 3.77 0 0 0-3.77 3.764v10.965a6.28 6.28 0 0 1-6.28 6.285s-9.4.422-20.36-.241c-17-1.038-30.01-6.37-41.24-15.116v62.138h-22.61V34.307h22.61l-1.99 11.545Zm-95.802-12.28c36.672.012 61.075 24.174 61.075 61.847 0 3.27-.132 6.587-.602 9.953h-97.809v.47c.748 24.006 15.876 39.532 38.542 39.532 17.697-.001 30.64-9.253 34.621-24.766l.242-.941h23.028l-.289 1.496c-5.332 27.202-27.36 44.778-56.118 44.778-38.156 0-63.802-26.43-63.802-65.78 0-19.12 5.851-35.55 16.9-47.48l.012-.025c11.086-11.979 26.358-19.084 44.188-19.084h.012Zm-337.54 0c36.684 0 61.088 24.162 61.088 61.836 0 3.269-.133 6.586-.603 9.952h-97.796v.471c.748 24.005 15.875 39.53 38.542 39.53 17.696 0 30.64-9.253 34.621-24.766l.241-.94h23.028l-.289 1.496c-5.344 27.202-27.359 44.778-56.118 44.778-38.168 0-63.801-26.43-63.802-65.78 0-19.12 5.839-35.551 16.901-47.482l-.013-.011c11.086-11.979 26.37-19.084 44.188-19.084h.012Zm208.802 0c30.652 0 51.377 17.564 56.854 46.793l.277 1.483h-23.789l-.205-.976c-3.643-16.49-15.802-26.744-33.378-26.745-23.499 0-39.29 19.362-39.29 46.263 0 26.897 15.786 44.965 39.279 44.97 16.821-.005 29.205-9.533 33.124-25.5h-.013l.242-.953h24.005l-.265 1.483c-5.187 28.505-26.623 45.526-57.348 45.527-37.854 0-62.318-25.719-62.318-65.527 0-19.24 6.019-35.744 17.419-47.723 11.399-11.978 27.094-19.095 45.406-19.095Zm397.48-25.14c1.38 0 2.51 1.122 2.51 2.509v20.893a2.52 2.52 0 0 0 2.51 2.51h38.31c1.39 0 2.52 1.134 2.52 2.52v16.07a2.525 2.525 0 0 1-2.52 2.52h-38.3a2.519 2.519 0 0 0-2.51 2.51v81.535a3.77 3.77 0 0 0 3.77 3.763l35.86.048c2.07 0 3.76-1.689 3.76-3.764v-14.891a2.528 2.528 0 0 1 2.53-2.523l16.12.032c1.38 0 2.51 1.085 2.51 2.472v16.129a2.526 2.526 0 0 1-2.52 2.522h-14.86a3.768 3.768 0 0 0-3.76 3.763v11.134a6.282 6.282 0 0 1-6.29 6.285h-23.99v-.048h-6.84a6.282 6.282 0 0 1-6.29-6.285v-11.135a3.768 3.768 0 0 0-3.76-3.763h-14.86a2.513 2.513 0 0 1-2.51-2.509V57.927a2.514 2.514 0 0 0-2.51-2.508h-16.11c-1.37 0-2.5-1.123-2.5-2.51v-16.08a2.512 2.512 0 0 1 2.5-2.51h16.11a2.52 2.52 0 0 0 2.51-2.509V10.94a2.514 2.514 0 0 1 2.51-2.508h16.1Zm166.58 25.863c1.39 0 2.52 1.135 2.52 2.522v16.128a2.525 2.525 0 0 1-2.52 2.521h-35.98a3.77 3.77 0 0 0-3.77 3.764v11.063a6.29 6.29 0 0 1-6.29 6.296h-12.34a2.52 2.52 0 0 0-2.51 2.51v82.849a2.532 2.532 0 0 1-2.52 2.521h-16.12a2.525 2.525 0 0 1-2.52-2.521V36.828a2.525 2.525 0 0 1 2.52-2.52h16.12a2.53 2.53 0 0 1 2.52 2.52v16.13a2.52 2.52 0 0 0 2.51 2.508h14.86c2.07 0 3.76-1.688 3.76-3.763V40.605a6.301 6.301 0 0 1 6.3-6.298h33.47l-.01-.012Zm107.44 0a6.29 6.29 0 0 1 6.29 6.297v12.341a2.532 2.532 0 0 0 2.52 2.522h15.64a2.99 2.99 0 0 1 2.99 2.99v81.922a2.992 2.992 0 0 1-2.99 2.992h-14.39a3.77 3.77 0 0 0-3.77 3.764v14.825a2.525 2.525 0 0 1-2.52 2.521h-70.59c-3.48 0-6.3-2.81-6.3-6.297V145.88a2.525 2.525 0 0 0-2.52-2.521h-12.33c-3.47 0-6.29-2.823-6.29-6.297v-75.31c0-3.475 2.82-6.297 6.29-6.297h11.09a3.77 3.77 0 0 0 3.76-3.764V36.817a2.532 2.532 0 0 1 2.52-2.522h70.6Zm67.03 0c1.39 0 2.52 1.135 2.52 2.522V52.92a2.53 2.53 0 0 0 2.52 2.52h14.85a3.77 3.77 0 0 0 3.77-3.763v-14.85a2.519 2.519 0 0 1 2.52-2.52h16.09c1.39 0 2.52 1.133 2.52 2.52v14.85a3.77 3.77 0 0 0 3.77 3.764h14.79c1.67 0 3.28.652 4.46 1.834l17.45 18.987a6.347 6.347 0 0 1 1.84 4.451v81.222a2.532 2.532 0 0 1-2.52 2.522h-16.12a2.527 2.527 0 0 1-2.52-2.522V79.123a2.525 2.525 0 0 0-2.52-2.522h-16.11a2.532 2.532 0 0 1-2.52-2.521V59.182a3.768 3.768 0 0 0-3.76-3.764h-13.6a3.768 3.768 0 0 0-3.76 3.764V74.08a2.525 2.525 0 0 1-2.52 2.521h-16.11a2.532 2.532 0 0 0-2.52 2.522v82.813a2.527 2.527 0 0 1-2.52 2.522h-16.11a2.522 2.522 0 0 1-2.51-2.51V36.817a2.525 2.525 0 0 1 2.52-2.522h16.1ZM479.25.603c29.615 0 53.706 24.102 53.706 53.705 0 29.603-24.103 53.705-53.706 53.705h-47.71v56.42h-22.643L408.85.603h70.4Zm215.714 45.31c-.41 2.291 2.364 3.702 4.005 2.05l-.012.012c8.046-8.094 18.986-13.667 29.348-13.668l11.908.013v22.81h-11.906c-17.263 0-31.256 13.994-31.256 31.256v76.034h-22.655V34.295h22.655l-2.087 11.618Zm113.02 99.448h.025l-.011-.001-.014.001Zm602.396-89.906a3.768 3.768 0 0 0-3.76 3.763v60.424a2.527 2.527 0 0 0 2.52 2.522h12.34c3.48 0 6.3 2.81 6.3 6.296v12.39a2.525 2.525 0 0 0 2.52 2.521h51.97c2.07 0 3.76-1.689 3.76-3.764V79.146c0-1.387-1.13-2.52-2.52-2.52h-12.33c-3.47 0-6.3-2.823-6.3-6.297V57.988c0-1.387-1.13-2.521-2.5-2.522l-.02-.011h-51.98Zm-310.24-.025s-16.01-.47-25 0c-24.09.531-41.98 15.852-41.98 43.899h-.02c0 28.444 17.94 42.896 42.95 43.849 11.12.254 24.05 0 24.05 0 1.39 0 2.51-1.134 2.51-2.51V128.28a6.282 6.282 0 0 1 6.29-6.285h10.99c2.07 0 3.76-1.689 3.76-3.764V80.353a3.768 3.768 0 0 0-3.76-3.764h-10.99a6.282 6.282 0 0 1-6.29-6.285V57.94a2.514 2.514 0 0 0-2.51-2.509Zm-500.463-1.556c-18.445 0-33.74 14.174-36.165 32.148h72.596c-2.34-19.663-15.864-32.148-36.431-32.148Zm337.54 0c-18.445 0-33.74 14.174-36.165 32.148h72.595c-2.34-19.663-15.863-32.148-36.43-32.148ZM431.553 23.257v62.114h47.697l.013-.012c17.117 0 31.05-13.933 31.05-31.05 0-17.118-13.921-31.051-31.05-31.052h-47.71Z"/><path fill="url(#a)" fill-rule="evenodd" d="m173.818 166.204 98.491-98.768a2.843 2.843 0 0 1 4.47.565l52.82 89.455a14.069 14.069 0 0 0 15.746 6.433c7.116-1.91 11.554-8.994 10.167-16.227L336.181 46.888A34.256 34.256 0 0 0 311.42 20.26a34.242 34.242 0 0 0-29.339 5.633c-1.397 1.045-3.413.8-4.459-.598a63.327 63.327 0 0 0-34.363-23.3c-21.049-5.643-45.757.94-61.312 16.526l-98.49 98.768a2.843 2.843 0 0 1-4.47-.565l-52.82-89.455a14.07 14.07 0 0 0-15.747-6.433C3.304 22.746-1.134 29.829.253 37.063l19.331 100.774a34.256 34.256 0 0 0 24.762 26.628 34.24 34.24 0 0 0 29.338-5.633c1.398-1.045 3.414-.8 4.46.598a63.327 63.327 0 0 0 34.363 23.299c23.449 6.284 44.594.235 61.311-16.525ZM94.37 138.605a2.841 2.841 0 0 0-.437 3.456l.064.118a40.58 40.58 0 0 0 24.399 18.541 40.507 40.507 0 0 0 39.174-10.529L261.374 46.12a2.842 2.842 0 0 0 .437-3.456l-.064-.118a40.581 40.581 0 0 0-24.398-18.542 40.51 40.51 0 0 0-39.175 10.53L94.37 138.605Zm226.192-52.158c.598 3.136-3.627 4.736-5.248 1.984l-22.66-38.374a2.84 2.84 0 0 1 .437-3.457l1.344-1.355a11.462 11.462 0 0 1 11.074-2.976 11.47 11.47 0 0 1 8.29 8.908l6.763 35.27ZM35.192 98.278c-.597-3.137 3.628-4.737 5.25-1.984L63.1 134.668a2.841 2.841 0 0 1-.437 3.457l-1.345 1.355a11.463 11.463 0 0 1-11.073 2.976 11.471 11.471 0 0 1-8.29-8.908l-6.764-35.27Z" clip-rule="evenodd"/><path fill="url(#b)" fill-rule="evenodd" d="m173.818 166.204 98.491-98.768a2.843 2.843 0 0 1 4.47.565l52.82 89.455a14.069 14.069 0 0 0 15.746 6.433c7.116-1.91 11.554-8.994 10.167-16.227L336.181 46.888A34.256 34.256 0 0 0 311.42 20.26a34.242 34.242 0 0 0-29.339 5.633c-1.397 1.045-3.413.8-4.459-.598a63.327 63.327 0 0 0-34.363-23.3c-21.049-5.643-45.757.94-61.312 16.526l-98.49 98.768a2.843 2.843 0 0 1-4.47-.565l-52.82-89.455a14.07 14.07 0 0 0-15.747-6.433C3.304 22.746-1.134 29.829.253 37.063l19.331 100.774a34.256 34.256 0 0 0 24.762 26.628 34.24 34.24 0 0 0 29.338-5.633c1.398-1.045 3.414-.8 4.46.598a63.327 63.327 0 0 0 34.363 23.299c23.449 6.284 44.594.235 61.311-16.525ZM94.37 138.605a2.841 2.841 0 0 0-.437 3.456l.064.118a40.58 40.58 0 0 0 24.399 18.541 40.507 40.507 0 0 0 39.174-10.529L261.374 46.12a2.842 2.842 0 0 0 .437-3.456l-.064-.118a40.581 40.581 0 0 0-24.398-18.542 40.51 40.51 0 0 0-39.175 10.53L94.37 138.605Zm226.192-52.158c.598 3.136-3.627 4.736-5.248 1.984l-22.66-38.374a2.84 2.84 0 0 1 .437-3.457l1.344-1.355a11.462 11.462 0 0 1 11.074-2.976 11.47 11.47 0 0 1 8.29 8.908l6.763 35.27ZM35.192 98.278c-.597-3.137 3.628-4.737 5.25-1.984L63.1 134.668a2.841 2.841 0 0 1-.437 3.457l-1.345 1.355a11.463 11.463 0 0 1-11.073 2.976 11.471 11.471 0 0 1-8.29-8.908l-6.764-35.27Z" clip-rule="evenodd"/><path fill="url(#c)" fill-rule="evenodd" d="m173.818 166.204 98.491-98.768a2.843 2.843 0 0 1 4.47.565l52.82 89.455a14.069 14.069 0 0 0 15.746 6.433c7.116-1.91 11.554-8.994 10.167-16.227L336.181 46.888A34.256 34.256 0 0 0 311.42 20.26a34.242 34.242 0 0 0-29.339 5.633c-1.397 1.045-3.413.8-4.459-.598a63.327 63.327 0 0 0-34.363-23.3c-21.049-5.643-45.757.94-61.312 16.526l-98.49 98.768a2.843 2.843 0 0 1-4.47-.565l-52.82-89.455a14.07 14.07 0 0 0-15.747-6.433C3.304 22.746-1.134 29.829.253 37.063l19.331 100.774a34.256 34.256 0 0 0 24.762 26.628 34.24 34.24 0 0 0 29.338-5.633c1.398-1.045 3.414-.8 4.46.598a63.327 63.327 0 0 0 34.363 23.299c23.449 6.284 44.594.235 61.311-16.525ZM94.37 138.605a2.841 2.841 0 0 0-.437 3.456l.064.118a40.58 40.58 0 0 0 24.399 18.541 40.507 40.507 0 0 0 39.174-10.529L261.374 46.12a2.842 2.842 0 0 0 .437-3.456l-.064-.118a40.581 40.581 0 0 0-24.398-18.542 40.51 40.51 0 0 0-39.175 10.53L94.37 138.605Zm226.192-52.158c.598 3.136-3.627 4.736-5.248 1.984l-22.66-38.374a2.84 2.84 0 0 1 .437-3.457l1.344-1.355a11.462 11.462 0 0 1 11.074-2.976 11.47 11.47 0 0 1 8.29 8.908l6.763 35.27ZM35.192 98.278c-.597-3.137 3.628-4.737 5.25-1.984L63.1 134.668a2.841 2.841 0 0 1-.437 3.457l-1.345 1.355a11.463 11.463 0 0 1-11.073 2.976 11.471 11.471 0 0 1-8.29-8.908l-6.764-35.27Z" clip-rule="evenodd"/><path fill="url(#d)" fill-rule="evenodd" d="m173.818 166.204 98.491-98.768a2.843 2.843 0 0 1 4.47.565l52.82 89.455a14.069 14.069 0 0 0 15.746 6.433c7.116-1.91 11.554-8.994 10.167-16.227L336.181 46.888A34.256 34.256 0 0 0 311.42 20.26a34.242 34.242 0 0 0-29.339 5.633c-1.397 1.045-3.413.8-4.459-.598a63.327 63.327 0 0 0-34.363-23.3c-21.049-5.643-45.757.94-61.312 16.526l-98.49 98.768a2.843 2.843 0 0 1-4.47-.565l-52.82-89.455a14.07 14.07 0 0 0-15.747-6.433C3.304 22.746-1.134 29.829.253 37.063l19.331 100.774a34.256 34.256 0 0 0 24.762 26.628 34.24 34.24 0 0 0 29.338-5.633c1.398-1.045 3.414-.8 4.46.598a63.327 63.327 0 0 0 34.363 23.299c23.449 6.284 44.594.235 61.311-16.525ZM94.37 138.605a2.841 2.841 0 0 0-.437 3.456l.064.118a40.58 40.58 0 0 0 24.399 18.541 40.507 40.507 0 0 0 39.174-10.529L261.374 46.12a2.842 2.842 0 0 0 .437-3.456l-.064-.118a40.581 40.581 0 0 0-24.398-18.542 40.51 40.51 0 0 0-39.175 10.53L94.37 138.605Zm226.192-52.158c.598 3.136-3.627 4.736-5.248 1.984l-22.66-38.374a2.84 2.84 0 0 1 .437-3.457l1.344-1.355a11.462 11.462 0 0 1 11.074-2.976 11.47 11.47 0 0 1 8.29 8.908l6.763 35.27ZM35.192 98.278c-.597-3.137 3.628-4.737 5.25-1.984L63.1 134.668a2.841 2.841 0 0 1-.437 3.457l-1.345 1.355a11.463 11.463 0 0 1-11.073 2.976 11.471 11.471 0 0 1-8.29-8.908l-6.764-35.27Z" clip-rule="evenodd"/><path fill="url(#e)" fill-rule="evenodd" d="m173.818 166.204 98.491-98.768a2.843 2.843 0 0 1 4.47.565l52.82 89.455a14.069 14.069 0 0 0 15.746 6.433c7.116-1.91 11.554-8.994 10.167-16.227L336.181 46.888A34.256 34.256 0 0 0 311.42 20.26a34.242 34.242 0 0 0-29.339 5.633c-1.397 1.045-3.413.8-4.459-.598a63.327 63.327 0 0 0-34.363-23.3c-21.049-5.643-45.757.94-61.312 16.526l-98.49 98.768a2.843 2.843 0 0 1-4.47-.565l-52.82-89.455a14.07 14.07 0 0 0-15.747-6.433C3.304 22.746-1.134 29.829.253 37.063l19.331 100.774a34.256 34.256 0 0 0 24.762 26.628 34.24 34.24 0 0 0 29.338-5.633c1.398-1.045 3.414-.8 4.46.598a63.327 63.327 0 0 0 34.363 23.299c23.449 6.284 44.594.235 61.311-16.525ZM94.37 138.605a2.841 2.841 0 0 0-.437 3.456l.064.118a40.58 40.58 0 0 0 24.399 18.541 40.507 40.507 0 0 0 39.174-10.529L261.374 46.12a2.842 2.842 0 0 0 .437-3.456l-.064-.118a40.581 40.581 0 0 0-24.398-18.542 40.51 40.51 0 0 0-39.175 10.53L94.37 138.605Zm226.192-52.158c.598 3.136-3.627 4.736-5.248 1.984l-22.66-38.374a2.84 2.84 0 0 1 .437-3.457l1.344-1.355a11.462 11.462 0 0 1 11.074-2.976 11.47 11.47 0 0 1 8.29 8.908l6.763 35.27ZM35.192 98.278c-.597-3.137 3.628-4.737 5.25-1.984L63.1 134.668a2.841 2.841 0 0 1-.437 3.457l-1.345 1.355a11.463 11.463 0 0 1-11.073 2.976 11.471 11.471 0 0 1-8.29-8.908l-6.764-35.27Z" clip-rule="evenodd"/><path fill="url(#f)" fill-rule="evenodd" d="m173.818 166.204 98.491-98.768a2.843 2.843 0 0 1 4.47.565l52.82 89.455a14.069 14.069 0 0 0 15.746 6.433c7.116-1.91 11.554-8.994 10.167-16.227L336.181 46.888A34.256 34.256 0 0 0 311.42 20.26a34.242 34.242 0 0 0-29.339 5.633c-1.397 1.045-3.413.8-4.459-.598a63.327 63.327 0 0 0-34.363-23.3c-21.049-5.643-45.757.94-61.312 16.526l-98.49 98.768a2.843 2.843 0 0 1-4.47-.565l-52.82-89.455a14.07 14.07 0 0 0-15.747-6.433C3.304 22.746-1.134 29.829.253 37.063l19.331 100.774a34.256 34.256 0 0 0 24.762 26.628 34.24 34.24 0 0 0 29.338-5.633c1.398-1.045 3.414-.8 4.46.598a63.327 63.327 0 0 0 34.363 23.299c23.449 6.284 44.594.235 61.311-16.525ZM94.37 138.605a2.841 2.841 0 0 0-.437 3.456l.064.118a40.58 40.58 0 0 0 24.399 18.541 40.507 40.507 0 0 0 39.174-10.529L261.374 46.12a2.842 2.842 0 0 0 .437-3.456l-.064-.118a40.581 40.581 0 0 0-24.398-18.542 40.51 40.51 0 0 0-39.175 10.53L94.37 138.605Zm226.192-52.158c.598 3.136-3.627 4.736-5.248 1.984l-22.66-38.374a2.84 2.84 0 0 1 .437-3.457l1.344-1.355a11.462 11.462 0 0 1 11.074-2.976 11.47 11.47 0 0 1 8.29 8.908l6.763 35.27ZM35.192 98.278c-.597-3.137 3.628-4.737 5.25-1.984L63.1 134.668a2.841 2.841 0 0 1-.437 3.457l-1.345 1.355a11.463 11.463 0 0 1-11.073 2.976 11.471 11.471 0 0 1-8.29-8.908l-6.764-35.27Z" clip-rule="evenodd"/><path fill="url(#g)" fill-rule="evenodd" d="m173.818 166.204 98.491-98.768a2.843 2.843 0 0 1 4.47.565l52.82 89.455a14.069 14.069 0 0 0 15.746 6.433c7.116-1.91 11.554-8.994 10.167-16.227L336.181 46.888A34.256 34.256 0 0 0 311.42 20.26a34.242 34.242 0 0 0-29.339 5.633c-1.397 1.045-3.413.8-4.459-.598a63.327 63.327 0 0 0-34.363-23.3c-21.049-5.643-45.757.94-61.312 16.526l-98.49 98.768a2.843 2.843 0 0 1-4.47-.565l-52.82-89.455a14.07 14.07 0 0 0-15.747-6.433C3.304 22.746-1.134 29.829.253 37.063l19.331 100.774a34.256 34.256 0 0 0 24.762 26.628 34.24 34.24 0 0 0 29.338-5.633c1.398-1.045 3.414-.8 4.46.598a63.327 63.327 0 0 0 34.363 23.299c23.449 6.284 44.594.235 61.311-16.525ZM94.37 138.605a2.841 2.841 0 0 0-.437 3.456l.064.118a40.58 40.58 0 0 0 24.399 18.541 40.507 40.507 0 0 0 39.174-10.529L261.374 46.12a2.842 2.842 0 0 0 .437-3.456l-.064-.118a40.581 40.581 0 0 0-24.398-18.542 40.51 40.51 0 0 0-39.175 10.53L94.37 138.605Zm226.192-52.158c.598 3.136-3.627 4.736-5.248 1.984l-22.66-38.374a2.84 2.84 0 0 1 .437-3.457l1.344-1.355a11.462 11.462 0 0 1 11.074-2.976 11.47 11.47 0 0 1 8.29 8.908l6.763 35.27ZM35.192 98.278c-.597-3.137 3.628-4.737 5.25-1.984L63.1 134.668a2.841 2.841 0 0 1-.437 3.457l-1.345 1.355a11.463 11.463 0 0 1-11.073 2.976 11.471 11.471 0 0 1-8.29-8.908l-6.764-35.27Z" clip-rule="evenodd"/><path fill="url(#h)" fill-rule="evenodd" d="m173.818 166.204 98.491-98.768a2.843 2.843 0 0 1 4.47.565l52.82 89.455a14.069 14.069 0 0 0 15.746 6.433c7.116-1.91 11.554-8.994 10.167-16.227L336.181 46.888A34.256 34.256 0 0 0 311.42 20.26a34.242 34.242 0 0 0-29.339 5.633c-1.397 1.045-3.413.8-4.459-.598a63.327 63.327 0 0 0-34.363-23.3c-21.049-5.643-45.757.94-61.312 16.526l-98.49 98.768a2.843 2.843 0 0 1-4.47-.565l-52.82-89.455a14.07 14.07 0 0 0-15.747-6.433C3.304 22.746-1.134 29.829.253 37.063l19.331 100.774a34.256 34.256 0 0 0 24.762 26.628 34.24 34.24 0 0 0 29.338-5.633c1.398-1.045 3.414-.8 4.46.598a63.327 63.327 0 0 0 34.363 23.299c23.449 6.284 44.594.235 61.311-16.525ZM94.37 138.605a2.841 2.841 0 0 0-.437 3.456l.064.118a40.58 40.58 0 0 0 24.399 18.541 40.507 40.507 0 0 0 39.174-10.529L261.374 46.12a2.842 2.842 0 0 0 .437-3.456l-.064-.118a40.581 40.581 0 0 0-24.398-18.542 40.51 40.51 0 0 0-39.175 10.53L94.37 138.605Zm226.192-52.158c.598 3.136-3.627 4.736-5.248 1.984l-22.66-38.374a2.84 2.84 0 0 1 .437-3.457l1.344-1.355a11.462 11.462 0 0 1 11.074-2.976 11.47 11.47 0 0 1 8.29 8.908l6.763 35.27ZM35.192 98.278c-.597-3.137 3.628-4.737 5.25-1.984L63.1 134.668a2.841 2.841 0 0 1-.437 3.457l-1.345 1.355a11.463 11.463 0 0 1-11.073 2.976 11.471 11.471 0 0 1-8.29-8.908l-6.764-35.27Z" clip-rule="evenodd"/><path fill="url(#i)" fill-rule="evenodd" d="m173.818 166.204 98.491-98.768a2.843 2.843 0 0 1 4.47.565l52.82 89.455a14.069 14.069 0 0 0 15.746 6.433c7.116-1.91 11.554-8.994 10.167-16.227L336.181 46.888A34.256 34.256 0 0 0 311.42 20.26a34.242 34.242 0 0 0-29.339 5.633c-1.397 1.045-3.413.8-4.459-.598a63.327 63.327 0 0 0-34.363-23.3c-21.049-5.643-45.757.94-61.312 16.526l-98.49 98.768a2.843 2.843 0 0 1-4.47-.565l-52.82-89.455a14.07 14.07 0 0 0-15.747-6.433C3.304 22.746-1.134 29.829.253 37.063l19.331 100.774a34.256 34.256 0 0 0 24.762 26.628 34.24 34.24 0 0 0 29.338-5.633c1.398-1.045 3.414-.8 4.46.598a63.327 63.327 0 0 0 34.363 23.299c23.449 6.284 44.594.235 61.311-16.525ZM94.37 138.605a2.841 2.841 0 0 0-.437 3.456l.064.118a40.58 40.58 0 0 0 24.399 18.541 40.507 40.507 0 0 0 39.174-10.529L261.374 46.12a2.842 2.842 0 0 0 .437-3.456l-.064-.118a40.581 40.581 0 0 0-24.398-18.542 40.51 40.51 0 0 0-39.175 10.53L94.37 138.605Zm226.192-52.158c.598 3.136-3.627 4.736-5.248 1.984l-22.66-38.374a2.84 2.84 0 0 1 .437-3.457l1.344-1.355a11.462 11.462 0 0 1 11.074-2.976 11.47 11.47 0 0 1 8.29 8.908l6.763 35.27ZM35.192 98.278c-.597-3.137 3.628-4.737 5.25-1.984L63.1 134.668a2.841 2.841 0 0 1-.437 3.457l-1.345 1.355a11.463 11.463 0 0 1-11.073 2.976 11.471 11.471 0 0 1-8.29-8.908l-6.764-35.27Z" clip-rule="evenodd"/><path fill="url(#j)" fill-rule="evenodd" d="m173.818 166.204 98.491-98.768a2.843 2.843 0 0 1 4.47.565l52.82 89.455a14.069 14.069 0 0 0 15.746 6.433c7.116-1.91 11.554-8.994 10.167-16.227L336.181 46.888A34.256 34.256 0 0 0 311.42 20.26a34.242 34.242 0 0 0-29.339 5.633c-1.397 1.045-3.413.8-4.459-.598a63.327 63.327 0 0 0-34.363-23.3c-21.049-5.643-45.757.94-61.312 16.526l-98.49 98.768a2.843 2.843 0 0 1-4.47-.565l-52.82-89.455a14.07 14.07 0 0 0-15.747-6.433C3.304 22.746-1.134 29.829.253 37.063l19.331 100.774a34.256 34.256 0 0 0 24.762 26.628 34.24 34.24 0 0 0 29.338-5.633c1.398-1.045 3.414-.8 4.46.598a63.327 63.327 0 0 0 34.363 23.299c23.449 6.284 44.594.235 61.311-16.525ZM94.37 138.605a2.841 2.841 0 0 0-.437 3.456l.064.118a40.58 40.58 0 0 0 24.399 18.541 40.507 40.507 0 0 0 39.174-10.529L261.374 46.12a2.842 2.842 0 0 0 .437-3.456l-.064-.118a40.581 40.581 0 0 0-24.398-18.542 40.51 40.51 0 0 0-39.175 10.53L94.37 138.605Zm226.192-52.158c.598 3.136-3.627 4.736-5.248 1.984l-22.66-38.374a2.84 2.84 0 0 1 .437-3.457l1.344-1.355a11.462 11.462 0 0 1 11.074-2.976 11.47 11.47 0 0 1 8.29 8.908l6.763 35.27ZM35.192 98.278c-.597-3.137 3.628-4.737 5.25-1.984L63.1 134.668a2.841 2.841 0 0 1-.437 3.457l-1.345 1.355a11.463 11.463 0 0 1-11.073 2.976 11.471 11.471 0 0 1-8.29-8.908l-6.764-35.27Z" clip-rule="evenodd"/><path fill="url(#k)" fill-rule="evenodd" d="m173.818 166.204 98.491-98.768a2.843 2.843 0 0 1 4.47.565l52.82 89.455a14.069 14.069 0 0 0 15.746 6.433c7.116-1.91 11.554-8.994 10.167-16.227L336.181 46.888A34.256 34.256 0 0 0 311.42 20.26a34.242 34.242 0 0 0-29.339 5.633c-1.397 1.045-3.413.8-4.459-.598a63.327 63.327 0 0 0-34.363-23.3c-21.049-5.643-45.757.94-61.312 16.526l-98.49 98.768a2.843 2.843 0 0 1-4.47-.565l-52.82-89.455a14.07 14.07 0 0 0-15.747-6.433C3.304 22.746-1.134 29.829.253 37.063l19.331 100.774a34.256 34.256 0 0 0 24.762 26.628 34.24 34.24 0 0 0 29.338-5.633c1.398-1.045 3.414-.8 4.46.598a63.327 63.327 0 0 0 34.363 23.299c23.449 6.284 44.594.235 61.311-16.525ZM94.37 138.605a2.841 2.841 0 0 0-.437 3.456l.064.118a40.58 40.58 0 0 0 24.399 18.541 40.507 40.507 0 0 0 39.174-10.529L261.374 46.12a2.842 2.842 0 0 0 .437-3.456l-.064-.118a40.581 40.581 0 0 0-24.398-18.542 40.51 40.51 0 0 0-39.175 10.53L94.37 138.605Zm226.192-52.158c.598 3.136-3.627 4.736-5.248 1.984l-22.66-38.374a2.84 2.84 0 0 1 .437-3.457l1.344-1.355a11.462 11.462 0 0 1 11.074-2.976 11.47 11.47 0 0 1 8.29 8.908l6.763 35.27ZM35.192 98.278c-.597-3.137 3.628-4.737 5.25-1.984L63.1 134.668a2.841 2.841 0 0 1-.437 3.457l-1.345 1.355a11.463 11.463 0 0 1-11.073 2.976 11.471 11.471 0 0 1-8.29-8.908l-6.764-35.27Z" clip-rule="evenodd"/><path fill="url(#l)" fill-rule="evenodd" d="m173.818 166.204 98.491-98.768a2.843 2.843 0 0 1 4.47.565l52.82 89.455a14.069 14.069 0 0 0 15.746 6.433c7.116-1.91 11.554-8.994 10.167-16.227L336.181 46.888A34.256 34.256 0 0 0 311.42 20.26a34.242 34.242 0 0 0-29.339 5.633c-1.397 1.045-3.413.8-4.459-.598a63.327 63.327 0 0 0-34.363-23.3c-21.049-5.643-45.757.94-61.312 16.526l-98.49 98.768a2.843 2.843 0 0 1-4.47-.565l-52.82-89.455a14.07 14.07 0 0 0-15.747-6.433C3.304 22.746-1.134 29.829.253 37.063l19.331 100.774a34.256 34.256 0 0 0 24.762 26.628 34.24 34.24 0 0 0 29.338-5.633c1.398-1.045 3.414-.8 4.46.598a63.327 63.327 0 0 0 34.363 23.299c23.449 6.284 44.594.235 61.311-16.525ZM94.37 138.605a2.841 2.841 0 0 0-.437 3.456l.064.118a40.58 40.58 0 0 0 24.399 18.541 40.507 40.507 0 0 0 39.174-10.529L261.374 46.12a2.842 2.842 0 0 0 .437-3.456l-.064-.118a40.581 40.581 0 0 0-24.398-18.542 40.51 40.51 0 0 0-39.175 10.53L94.37 138.605Zm226.192-52.158c.598 3.136-3.627 4.736-5.248 1.984l-22.66-38.374a2.84 2.84 0 0 1 .437-3.457l1.344-1.355a11.462 11.462 0 0 1 11.074-2.976 11.47 11.47 0 0 1 8.29 8.908l6.763 35.27ZM35.192 98.278c-.597-3.137 3.628-4.737 5.25-1.984L63.1 134.668a2.841 2.841 0 0 1-.437 3.457l-1.345 1.355a11.463 11.463 0 0 1-11.073 2.976 11.471 11.471 0 0 1-8.29-8.908l-6.764-35.27Z" clip-rule="evenodd"/><path fill="url(#m)" fill-rule="evenodd" d="m173.818 166.204 98.491-98.768a2.843 2.843 0 0 1 4.47.565l52.82 89.455a14.069 14.069 0 0 0 15.746 6.433c7.116-1.91 11.554-8.994 10.167-16.227L336.181 46.888A34.256 34.256 0 0 0 311.42 20.26a34.242 34.242 0 0 0-29.339 5.633c-1.397 1.045-3.413.8-4.459-.598a63.327 63.327 0 0 0-34.363-23.3c-21.049-5.643-45.757.94-61.312 16.526l-98.49 98.768a2.843 2.843 0 0 1-4.47-.565l-52.82-89.455a14.07 14.07 0 0 0-15.747-6.433C3.304 22.746-1.134 29.829.253 37.063l19.331 100.774a34.256 34.256 0 0 0 24.762 26.628 34.24 34.24 0 0 0 29.338-5.633c1.398-1.045 3.414-.8 4.46.598a63.327 63.327 0 0 0 34.363 23.299c23.449 6.284 44.594.235 61.311-16.525ZM94.37 138.605a2.841 2.841 0 0 0-.437 3.456l.064.118a40.58 40.58 0 0 0 24.399 18.541 40.507 40.507 0 0 0 39.174-10.529L261.374 46.12a2.842 2.842 0 0 0 .437-3.456l-.064-.118a40.581 40.581 0 0 0-24.398-18.542 40.51 40.51 0 0 0-39.175 10.53L94.37 138.605Zm226.192-52.158c.598 3.136-3.627 4.736-5.248 1.984l-22.66-38.374a2.84 2.84 0 0 1 .437-3.457l1.344-1.355a11.462 11.462 0 0 1 11.074-2.976 11.47 11.47 0 0 1 8.29 8.908l6.763 35.27ZM35.192 98.278c-.597-3.137 3.628-4.737 5.25-1.984L63.1 134.668a2.841 2.841 0 0 1-.437 3.457l-1.345 1.355a11.463 11.463 0 0 1-11.073 2.976 11.471 11.471 0 0 1-8.29-8.908l-6.764-35.27Z" clip-rule="evenodd"/><path fill="url(#n)" fill-rule="evenodd" d="m173.818 166.204 98.491-98.768a2.843 2.843 0 0 1 4.47.565l52.82 89.455a14.069 14.069 0 0 0 15.746 6.433c7.116-1.91 11.554-8.994 10.167-16.227L336.181 46.888A34.256 34.256 0 0 0 311.42 20.26a34.242 34.242 0 0 0-29.339 5.633c-1.397 1.045-3.413.8-4.459-.598a63.327 63.327 0 0 0-34.363-23.3c-21.049-5.643-45.757.94-61.312 16.526l-98.49 98.768a2.843 2.843 0 0 1-4.47-.565l-52.82-89.455a14.07 14.07 0 0 0-15.747-6.433C3.304 22.746-1.134 29.829.253 37.063l19.331 100.774a34.256 34.256 0 0 0 24.762 26.628 34.24 34.24 0 0 0 29.338-5.633c1.398-1.045 3.414-.8 4.46.598a63.327 63.327 0 0 0 34.363 23.299c23.449 6.284 44.594.235 61.311-16.525ZM94.37 138.605a2.841 2.841 0 0 0-.437 3.456l.064.118a40.58 40.58 0 0 0 24.399 18.541 40.507 40.507 0 0 0 39.174-10.529L261.374 46.12a2.842 2.842 0 0 0 .437-3.456l-.064-.118a40.581 40.581 0 0 0-24.398-18.542 40.51 40.51 0 0 0-39.175 10.53L94.37 138.605Zm226.192-52.158c.598 3.136-3.627 4.736-5.248 1.984l-22.66-38.374a2.84 2.84 0 0 1 .437-3.457l1.344-1.355a11.462 11.462 0 0 1 11.074-2.976 11.47 11.47 0 0 1 8.29 8.908l6.763 35.27ZM35.192 98.278c-.597-3.137 3.628-4.737 5.25-1.984L63.1 134.668a2.841 2.841 0 0 1-.437 3.457l-1.345 1.355a11.463 11.463 0 0 1-11.073 2.976 11.471 11.471 0 0 1-8.29-8.908l-6.764-35.27Z" clip-rule="evenodd"/><path fill="url(#o)" fill-rule="evenodd" d="m173.818 166.204 98.491-98.768a2.843 2.843 0 0 1 4.47.565l52.82 89.455a14.069 14.069 0 0 0 15.746 6.433c7.116-1.91 11.554-8.994 10.167-16.227L336.181 46.888A34.256 34.256 0 0 0 311.42 20.26a34.242 34.242 0 0 0-29.339 5.633c-1.397 1.045-3.413.8-4.459-.598a63.327 63.327 0 0 0-34.363-23.3c-21.049-5.643-45.757.94-61.312 16.526l-98.49 98.768a2.843 2.843 0 0 1-4.47-.565l-52.82-89.455a14.07 14.07 0 0 0-15.747-6.433C3.304 22.746-1.134 29.829.253 37.063l19.331 100.774a34.256 34.256 0 0 0 24.762 26.628 34.24 34.24 0 0 0 29.338-5.633c1.398-1.045 3.414-.8 4.46.598a63.327 63.327 0 0 0 34.363 23.299c23.449 6.284 44.594.235 61.311-16.525ZM94.37 138.605a2.841 2.841 0 0 0-.437 3.456l.064.118a40.58 40.58 0 0 0 24.399 18.541 40.507 40.507 0 0 0 39.174-10.529L261.374 46.12a2.842 2.842 0 0 0 .437-3.456l-.064-.118a40.581 40.581 0 0 0-24.398-18.542 40.51 40.51 0 0 0-39.175 10.53L94.37 138.605Zm226.192-52.158c.598 3.136-3.627 4.736-5.248 1.984l-22.66-38.374a2.84 2.84 0 0 1 .437-3.457l1.344-1.355a11.462 11.462 0 0 1 11.074-2.976 11.47 11.47 0 0 1 8.29 8.908l6.763 35.27ZM35.192 98.278c-.597-3.137 3.628-4.737 5.25-1.984L63.1 134.668a2.841 2.841 0 0 1-.437 3.457l-1.345 1.355a11.463 11.463 0 0 1-11.073 2.976 11.471 11.471 0 0 1-8.29-8.908l-6.764-35.27Z" clip-rule="evenodd"/><path fill="url(#p)" fill-rule="evenodd" d="m173.818 166.204 98.491-98.768a2.843 2.843 0 0 1 4.47.565l52.82 89.455a14.069 14.069 0 0 0 15.746 6.433c7.116-1.91 11.554-8.994 10.167-16.227L336.181 46.888A34.256 34.256 0 0 0 311.42 20.26a34.242 34.242 0 0 0-29.339 5.633c-1.397 1.045-3.413.8-4.459-.598a63.327 63.327 0 0 0-34.363-23.3c-21.049-5.643-45.757.94-61.312 16.526l-98.49 98.768a2.843 2.843 0 0 1-4.47-.565l-52.82-89.455a14.07 14.07 0 0 0-15.747-6.433C3.304 22.746-1.134 29.829.253 37.063l19.331 100.774a34.256 34.256 0 0 0 24.762 26.628 34.24 34.24 0 0 0 29.338-5.633c1.398-1.045 3.414-.8 4.46.598a63.327 63.327 0 0 0 34.363 23.299c23.449 6.284 44.594.235 61.311-16.525ZM94.37 138.605a2.841 2.841 0 0 0-.437 3.456l.064.118a40.58 40.58 0 0 0 24.399 18.541 40.507 40.507 0 0 0 39.174-10.529L261.374 46.12a2.842 2.842 0 0 0 .437-3.456l-.064-.118a40.581 40.581 0 0 0-24.398-18.542 40.51 40.51 0 0 0-39.175 10.53L94.37 138.605Zm226.192-52.158c.598 3.136-3.627 4.736-5.248 1.984l-22.66-38.374a2.84 2.84 0 0 1 .437-3.457l1.344-1.355a11.462 11.462 0 0 1 11.074-2.976 11.47 11.47 0 0 1 8.29 8.908l6.763 35.27ZM35.192 98.278c-.597-3.137 3.628-4.737 5.25-1.984L63.1 134.668a2.841 2.841 0 0 1-.437 3.457l-1.345 1.355a11.463 11.463 0 0 1-11.073 2.976 11.471 11.471 0 0 1-8.29-8.908l-6.764-35.27Z" clip-rule="evenodd"/><path fill="url(#q)" fill-rule="evenodd" d="m173.818 166.204 98.491-98.768a2.843 2.843 0 0 1 4.47.565l52.82 89.455a14.069 14.069 0 0 0 15.746 6.433c7.116-1.91 11.554-8.994 10.167-16.227L336.181 46.888A34.256 34.256 0 0 0 311.42 20.26a34.242 34.242 0 0 0-29.339 5.633c-1.397 1.045-3.413.8-4.459-.598a63.327 63.327 0 0 0-34.363-23.3c-21.049-5.643-45.757.94-61.312 16.526l-98.49 98.768a2.843 2.843 0 0 1-4.47-.565l-52.82-89.455a14.07 14.07 0 0 0-15.747-6.433C3.304 22.746-1.134 29.829.253 37.063l19.331 100.774a34.256 34.256 0 0 0 24.762 26.628 34.24 34.24 0 0 0 29.338-5.633c1.398-1.045 3.414-.8 4.46.598a63.327 63.327 0 0 0 34.363 23.299c23.449 6.284 44.594.235 61.311-16.525ZM94.37 138.605a2.841 2.841 0 0 0-.437 3.456l.064.118a40.58 40.58 0 0 0 24.399 18.541 40.507 40.507 0 0 0 39.174-10.529L261.374 46.12a2.842 2.842 0 0 0 .437-3.456l-.064-.118a40.581 40.581 0 0 0-24.398-18.542 40.51 40.51 0 0 0-39.175 10.53L94.37 138.605Zm226.192-52.158c.598 3.136-3.627 4.736-5.248 1.984l-22.66-38.374a2.84 2.84 0 0 1 .437-3.457l1.344-1.355a11.462 11.462 0 0 1 11.074-2.976 11.47 11.47 0 0 1 8.29 8.908l6.763 35.27ZM35.192 98.278c-.597-3.137 3.628-4.737 5.25-1.984L63.1 134.668a2.841 2.841 0 0 1-.437 3.457l-1.345 1.355a11.463 11.463 0 0 1-11.073 2.976 11.471 11.471 0 0 1-8.29-8.908l-6.764-35.27Z" clip-rule="evenodd"/><defs><linearGradient id="a" x1="297.203" x2="346.776" y1="58.011" y2="32.973" gradientUnits="userSpaceOnUse"><stop stop-color="#F8F4EB" stop-opacity=".2"/><stop offset="1" stop-color="#F8F4EB"/></linearGradient><linearGradient id="b" x1="279.783" x2="206.611" y1="73.055" y2="131.54" gradientUnits="userSpaceOnUse"><stop stop-color="#F8F4EB" stop-opacity="0"/><stop offset="1" stop-color="#F8F4EB"/><stop offset="1" stop-color="#F8F4EB" stop-opacity="0"/></linearGradient><linearGradient id="c" x1="146.315" x2="108.305" y1="162.28" y2="127.081" gradientUnits="userSpaceOnUse"><stop stop-color="#F8F4EB" stop-opacity="0"/><stop stop-color="#F8F4EB"/><stop offset="1" stop-color="#F8F4EB" stop-opacity="0"/></linearGradient><linearGradient id="d" x1="59.528" x2="91.94" y1="78.579" y2="109.19" gradientUnits="userSpaceOnUse"><stop stop-color="#F8F4EB" stop-opacity="0"/><stop stop-color="#F8F4EB"/><stop offset="1" stop-color="#F8F4EB" stop-opacity="0"/></linearGradient><linearGradient id="e" x1="59.528" x2="-29.535" y1="78.579" y2="7.893" gradientUnits="userSpaceOnUse"><stop stop-color="#F8F4EB" stop-opacity="0"/><stop stop-color="#F8F4EB"/><stop offset="1" stop-color="#F8F4EB"/></linearGradient><linearGradient id="f" x1="36.828" x2="-4.19" y1="91.517" y2="113.689" gradientUnits="userSpaceOnUse"><stop stop-color="#F8F4EB" stop-opacity="0"/><stop stop-color="#F8F4EB"/><stop offset="1" stop-color="#F8F4EB"/></linearGradient><linearGradient id="g" x1="122.682" x2="81.671" y1="112.333" y2="71.321" gradientUnits="userSpaceOnUse"><stop offset=".025" stop-color="#F8F4EB" stop-opacity="0"/><stop offset=".025" stop-color="#F8F4EB"/><stop offset=".419" stop-color="#F8F4EB"/><stop offset=".419" stop-color="#F8F4EB" stop-opacity="0"/></linearGradient><linearGradient id="h" x1="283.75" x2="263.347" y1="32.908" y2="45.268" gradientUnits="userSpaceOnUse"><stop offset=".053" stop-color="#F8F4EB" stop-opacity="0"/><stop offset=".054" stop-color="#F8F4EB"/><stop offset="1" stop-color="#F8F4EB"/><stop offset="1" stop-color="#F8F4EB" stop-opacity="0"/></linearGradient><linearGradient id="i" x1="296.383" x2="276.593" y1="56.198" y2="67.851" gradientUnits="userSpaceOnUse"><stop offset=".316" stop-color="#F8F4EB" stop-opacity="0"/><stop offset=".402" stop-color="#F8F4EB"/><stop offset="1" stop-color="#F8F4EB"/><stop offset="1" stop-color="#F8F4EB" stop-opacity="0"/></linearGradient><linearGradient id="j" x1="378.307" x2="276.838" y1="200.036" y2="71.063" gradientUnits="userSpaceOnUse"><stop stop-color="#F8F4EB"/><stop offset=".766" stop-color="#F8F4EB"/><stop offset="1" stop-color="#F8F4EB" stop-opacity="0"/></linearGradient><linearGradient id="k" x1="378.307" x2="275.887" y1="200.036" y2="58.656" gradientUnits="userSpaceOnUse"><stop stop-color="#F8F4EB"/><stop offset=".885" stop-color="#F8F4EB" stop-opacity="0"/></linearGradient><linearGradient id="p" x1="236.379" x2="126.481" y1="88.662" y2="162.779" gradientUnits="userSpaceOnUse"><stop offset=".067" stop-color="#F8F4EB" stop-opacity="0"/><stop offset=".332" stop-color="#F8F4EB"/><stop offset=".681" stop-color="#F8F4EB"/><stop offset="1" stop-color="#F8F4EB" stop-opacity="0"/></linearGradient><radialGradient id="l" cx="0" cy="0" r="1" gradientTransform="matrix(4.82864 -74.46741 74.46691 4.82861 230.393 17.688)" gradientUnits="userSpaceOnUse"><stop offset=".33" stop-color="#F8F4EB"/><stop offset=".543" stop-color="#F8F4EB" stop-opacity="0"/></radialGradient><radialGradient id="m" cx="0" cy="0" r="1" gradientTransform="rotate(-130.321 135.302 -42.394) scale(36.6972)" gradientUnits="userSpaceOnUse"><stop stop-color="#F8F4EB"/><stop offset=".326" stop-color="#F8F4EB" stop-opacity="0"/></radialGradient><radialGradient id="n" cx="0" cy="0" r="1" gradientTransform="rotate(-130.527 139.419 -40.283) scale(44.9411)" gradientUnits="userSpaceOnUse"><stop stop-color="#F8F4EB"/><stop offset=".086" stop-color="#F8F4EB" stop-opacity="0"/></radialGradient><radialGradient id="o" cx="0" cy="0" r="1" gradientTransform="rotate(-41.92 140.39 -253.231) scale(35.3737)" gradientUnits="userSpaceOnUse"><stop stop-color="#F8F4EB"/><stop offset=".477" stop-color="#F8F4EB" stop-opacity="0"/></radialGradient><radialGradient id="q" cx="0" cy="0" r="1" gradientTransform="rotate(44.153 -136.717 272.619) scale(63.1993 178.2)" gradientUnits="userSpaceOnUse"><stop offset=".224" stop-color="#F8F4EB"/><stop offset=".766" stop-color="#F8F4EB" stop-opacity="0"/></radialGradient></defs></svg>